<?xml version="1.0" encoding="UTF-8" standalone="no"?>
<svg
   xmlns:dc="http://purl.org/dc/elements/1.1/"
   xmlns:cc="http://creativecommons.org/ns#"
   xmlns:rdf="http://www.w3.org/1999/02/22-rdf-syntax-ns#"
   xmlns:svg="http://www.w3.org/2000/svg"
   xmlns="http://www.w3.org/2000/svg"
   xmlns:sodipodi="http://sodipodi.sourceforge.net/DTD/sodipodi-0.dtd"
   xmlns:inkscape="http://www.inkscape.org/namespaces/inkscape"
   width="512"
   height="512"
   viewBox="0 0 512 512"
   version="1.1"
   id="svg968"
   sodipodi:docname="logo.svg"
   inkscape:export-filename="/home/iwanp/projects/food_label_app/lib/assets/icon/logo.png"
   inkscape:export-xdpi="96"
   inkscape:export-ydpi="96"
   style="fill:none"
   inkscape:version="0.92.4 (5da689c313, 2019-01-14)">
  <metadata
     id="metadata972">
    <rdf:RDF>
      <cc:Work
         rdf:about="">
        <dc:format>image/svg+xml</dc:format>
        <dc:type
           rdf:resource="http://purl.org/dc/dcmitype/StillImage" />
        <dc:title></dc:title>
      </cc:Work>
    </rdf:RDF>
  </metadata>
  <sodipodi:namedview
     pagecolor="#ffffff"
     bordercolor="#666666"
     borderopacity="1"
     objecttolerance="10"
     gridtolerance="10"
     guidetolerance="10"
     inkscape:pageopacity="0"
     inkscape:pageshadow="2"
     inkscape:window-width="2558"
     inkscape:window-height="1410"
     id="namedview970"
     showgrid="false"
     inkscape:zoom="0.83928572"
     inkscape:cx="167.15813"
     inkscape:cy="-124.76858"
     inkscape:window-x="0"
     inkscape:window-y="28"
     inkscape:window-maximized="1"
     inkscape:current-layer="svg968" />
  <g
     id="g1129"
     transform="translate(1.1914894,-14.297872)"
     inkscape:export-xdpi="96"
     inkscape:export-ydpi="96">
    <path
       style="clip-rule:evenodd;fill:url(#paint0_linear);fill-rule:evenodd;stroke-width:3.33407211"
       inkscape:connector-curvature="0"
       id="path955"
       d="M 33.340717,172.72826 C 14.927142,172.72826 0,187.65539 0,206.06897 V 312.75929 C 0,331.1727 14.927174,346.1 33.340717,346.1 H 300.06648 c 18.41376,0 33.34073,-14.9273 33.34073,-33.34071 V 206.06897 c 0,-18.41358 -14.92731,-33.34071 -33.34073,-33.34071 z m 328.552803,83.78522 v -25.63567 h 31.24692 v -8.25184 h -41.25913 v 76.79702 h 41.25913 v -8.25182 h -31.24692 v -26.40585 h 27.94619 v -8.25184 z m 46.39695,-3.6308 c -2.49388,4.62102 -3.74083,10.01222 -3.74083,16.17359 0,6.08802 1.24695,11.51588 3.74083,16.28361 2.49389,4.76772 5.90464,8.47187 10.23226,11.11246 4.32763,2.64058 9.1687,3.96087 14.52322,3.96087 5.20782,0 9.7555,-1.13691 13.64302,-3.41075 3.96089,-2.34718 6.93154,-5.28117 8.91198,-8.80195 v 11.22248 h 10.12224 v -60.29336 h -10.12224 v 11.00245 c -1.90709,-3.44744 -4.80439,-6.30807 -8.69193,-8.58191 -3.88753,-2.27383 -8.47187,-3.41076 -13.75304,-3.41076 -5.35452,0 -10.23227,1.28363 -14.63325,3.85086 -4.32762,2.56723 -7.73837,6.19804 -10.23226,10.89241 z m 44.55988,4.40098 c 1.83374,3.37407 2.7506,7.33496 2.7506,11.88263 0,4.54767 -0.91686,8.54523 -2.7506,11.99266 -1.83375,3.37408 -4.32764,5.97799 -7.48167,7.81173 -3.08068,1.76039 -6.49144,2.64059 -10.23226,2.64059 -3.74083,0 -7.15158,-0.8802 -10.23227,-2.64059 -3.08069,-1.83374 -5.5379,-4.43765 -7.37164,-7.81173 -1.83374,-3.44743 -2.7506,-7.48166 -2.7506,-12.10268 0,-4.54768 0.91686,-8.50856 2.7506,-11.88264 1.83374,-3.37407 4.29095,-5.94131 7.37164,-7.7017 3.08069,-1.76039 6.49144,-2.64059 10.23227,-2.64059 3.74082,0 7.15158,0.91687 10.23226,2.75061 3.15403,1.76039 5.64792,4.32763 7.48167,7.70171 z m 42.00597,25.63568 v -35.53788 h 15.73349 v -8.25183 H 494.85632 V 223.94628 H 484.8441 v 15.18335 h -7.81173 v 8.25183 h 7.81173 v 35.53788 c 0,5.86797 1.39364,10.08557 4.18092,12.6528 2.78729,2.56724 6.96821,3.85085 12.54279,3.85085 h 9.022 v -8.47187 h -7.37164 c -3.08069,0 -5.2445,-0.5868 -6.49144,-1.7604 -1.24694,-1.24693 -1.87041,-3.3374 -1.87041,-6.27138 z" />
    <path
       style="clip-rule:evenodd;fill:#ffffff;fill-rule:evenodd;stroke-width:3.33407211"
       inkscape:connector-curvature="0"
       id="path957"
       d="M 30.797829,191.0657 H 302.60938 c 5.52422,0 10.00222,4.47816 10.00222,10.00222 v 3.33407 h 6.66815 v -3.33407 c 0,-9.20677 -7.46366,-16.67036 -16.67037,-16.67036 H 30.797829 c -9.206774,0 -16.670365,7.46359 -16.670365,16.67036 v 3.33407 h 6.668146 v -3.33407 c 0,-5.52406 4.478161,-10.00222 10.002219,-10.00222 z M 20.79561,314.42627 h -6.668146 v 3.33407 c 0,9.20704 7.463591,16.67036 16.670365,16.67036 H 302.60938 c 9.20671,0 16.67037,-7.46332 16.67037,-16.67036 v -3.33407 h -6.66815 v 3.33407 c 0,5.52422 -4.478,10.00222 -10.00222,10.00222 H 30.797829 c -5.524058,0 -10.002219,-4.478 -10.002219,-10.00222 z" />
    <path
       style="fill:#ffffff;stroke-width:3.33407211"
       inkscape:connector-curvature="0"
       id="path959"
       d="m 44.769925,298.96789 c -5.647927,0 -10.709042,-0.91686 -15.183365,-2.7506 -4.474333,-1.83374 -8.068458,-4.54768 -10.782396,-8.14181 -2.640583,-3.59413 -4.034225,-7.92176 -4.180924,-12.98287 h 20.024435 c 0.293406,2.86063 1.283625,5.06111 2.970656,6.60146 1.687042,1.46699 3.887531,2.20049 6.601469,2.20049 2.787281,0 4.987771,-0.62347 6.601458,-1.87042 1.613698,-1.32029 2.420542,-3.11735 2.420542,-5.3912 0,-1.90708 -0.660146,-3.4841 -1.980438,-4.73104 -1.246948,-1.24695 -2.823958,-2.27384 -4.731052,-3.08069 -1.833739,-0.80684 -4.474323,-1.7237 -7.92175,-2.7506 -4.987781,-1.54034 -9.058677,-3.08069 -12.212708,-4.62103 -3.154031,-1.54033 -5.867969,-3.81418 -8.141802,-6.82151 -2.273842,-3.00733 -3.410761,-6.93153 -3.410761,-11.77261 0,-7.18826 2.603907,-12.7995 7.81173,-16.83373 5.207823,-4.10758 11.992656,-6.16136 20.35451,-6.16136 8.508552,0 15.36674,2.05378 20.574562,6.16136 5.207823,4.03423 7.995105,9.68215 8.361855,16.94376 H 51.591435 c -0.146698,-2.49389 -1.063573,-4.43765 -2.750614,-5.8313 -1.687042,-1.46699 -3.850854,-2.20049 -6.491438,-2.20049 -2.273833,0 -4.107573,0.62348 -5.501219,1.87042 -1.393645,1.17359 -2.090458,2.89731 -2.090458,5.17115 0,2.49388 1.173594,4.43764 3.520781,5.83129 2.347177,1.39364 6.014657,2.89731 11.002438,4.511 4.987771,1.68704 9.021989,3.30073 12.102677,4.84107 3.154031,1.54034 5.867969,3.7775 8.141802,6.71149 2.273844,2.93398 3.41076,6.71149 3.41076,11.33251 0,4.40098 -1.136916,8.39853 -3.41076,11.99266 -2.20049,3.59412 -5.427865,6.45476 -9.682146,8.5819 -4.254271,2.12714 -9.278719,3.1907 -15.073333,3.1907 z m 36.553762,-39.49875 c 0,-7.62835 1.650365,-14.41319 4.951094,-20.35451 3.30074,-6.01467 7.885083,-10.67236 13.753049,-13.97309 5.94131,-3.37409 12.6528,-5.06113 20.13446,-5.06113 9.1687,0 17.0171,2.42054 23.54522,7.26162 6.52811,4.84107 10.89241,11.44253 13.0929,19.80438 h -20.68458 c -1.54034,-3.22738 -3.74083,-5.68459 -6.60147,-7.37163 -2.78728,-1.68704 -5.97799,-2.53057 -9.57211,-2.53057 -5.79463,0 -10.489,2.01712 -14.08313,6.05135 -3.59413,4.03423 -5.3912,9.42542 -5.3912,16.17358 0,6.74817 1.79707,12.13936 5.3912,16.17358 3.59413,4.03423 8.2885,6.05135 14.08313,6.05135 3.59412,0 6.78483,-0.84352 9.57211,-2.53056 2.86064,-1.68705 5.06113,-4.14425 6.60147,-7.37164 h 20.68458 c -2.20049,8.36185 -6.56479,14.96332 -13.0929,19.8044 -6.52812,4.76772 -14.37652,7.15158 -23.54522,7.15158 -7.48166,0 -14.19315,-1.65037 -20.13446,-4.9511 -5.867966,-3.37408 -10.452309,-8.03178 -13.753049,-13.9731 -3.300729,-5.94131 -4.951094,-12.72614 -4.951094,-20.35451 z M 216.40295,284.5547 h -28.82639 l -4.62102,13.64302 h -19.69437 l 27.9462,-77.23711 h 21.78482 l 27.9462,77.23711 h -19.91442 z m -4.84107,-14.52322 -9.57213,-28.27627 -9.46209,28.27627 z m 106.97703,28.16624 h -18.81417 l -31.46697,-47.64055 v 47.64055 h -18.81416 v -77.23711 h 18.81416 l 31.46697,47.8606 v -47.8606 h 18.81417 z" />
  </g>
  <defs
     id="defs966">
    <linearGradient
       id="paint0_linear"
       x1="262.10999"
       y1="89"
       x2="207.91701"
       y2="-70.5989"
       gradientUnits="userSpaceOnUse"
       gradientTransform="matrix(3.3340721,0,0,3.3340721,-7.2e-6,172.72824)">
      <stop
         stop-color="#96C21C"
         id="stop961" />
      <stop
         offset="1"
         stop-color="#80E0DA"
         id="stop963" />
    </linearGradient>
  </defs>
</svg>
