<svg width="154" height="52" viewBox="0 0 154 52" fill="none" xmlns="http://www.w3.org/2000/svg">
<path fill-rule="evenodd" clip-rule="evenodd" d="M10 0C4.47715 0 0 4.47715 0 10V42C0 47.5228 4.47716 52 10 52H90C95.5229 52 100 47.5228 100 42V10C100 4.47715 95.5228 0 90 0H10ZM108.544 25.13V17.441H117.916V14.966H105.541V38H117.916V35.525H108.544V27.605H116.926V25.13H108.544ZM122.46 24.041C121.712 25.427 121.338 27.044 121.338 28.892C121.338 30.718 121.712 32.346 122.46 33.776C123.208 35.206 124.231 36.317 125.529 37.109C126.827 37.901 128.279 38.297 129.885 38.297C131.447 38.297 132.811 37.956 133.977 37.274C135.165 36.57 136.056 35.69 136.65 34.634V38H139.686V19.916H136.65V23.216C136.078 22.182 135.209 21.324 134.043 20.642C132.877 19.96 131.502 19.619 129.918 19.619C128.312 19.619 126.849 20.004 125.529 20.774C124.231 21.544 123.208 22.633 122.46 24.041ZM135.825 25.361C136.375 26.373 136.65 27.561 136.65 28.925C136.65 30.289 136.375 31.488 135.825 32.522C135.275 33.534 134.527 34.315 133.581 34.865C132.657 35.393 131.634 35.657 130.512 35.657C129.39 35.657 128.367 35.393 127.443 34.865C126.519 34.315 125.782 33.534 125.232 32.522C124.682 31.488 124.407 30.278 124.407 28.892C124.407 27.528 124.682 26.34 125.232 25.328C125.782 24.316 126.519 23.546 127.443 23.018C128.367 22.49 129.39 22.226 130.512 22.226C131.634 22.226 132.657 22.501 133.581 23.051C134.527 23.579 135.275 24.349 135.825 25.361ZM148.424 33.05V22.391H153.143V19.916H148.424V15.362H145.421V19.916H143.078V22.391H145.421V33.05C145.421 34.81 145.839 36.075 146.675 36.845C147.511 37.615 148.765 38 150.437 38H153.143V35.459H150.932C150.008 35.459 149.359 35.283 148.985 34.931C148.611 34.557 148.424 33.93 148.424 33.05Z" fill="url(#paint0_linear)"/>
<path fill-rule="evenodd" clip-rule="evenodd" d="M9.2373 5.50003H90.7627C92.4196 5.50003 93.7627 6.84318 93.7627 8.50003V9.50003H95.7627V8.50003C95.7627 5.73861 93.5241 3.50003 90.7627 3.50003H9.2373C6.47588 3.50003 4.2373 5.73861 4.2373 8.50003V9.50003H6.2373V8.50003C6.2373 6.84318 7.58045 5.50003 9.2373 5.50003ZM6.2373 42.5H4.2373V43.5C4.2373 46.2615 6.47588 48.5 9.2373 48.5H90.7627C93.5241 48.5 95.7627 46.2615 95.7627 43.5V42.5H93.7627V43.5C93.7627 45.1569 92.4196 46.5 90.7627 46.5H9.2373C7.58045 46.5 6.2373 45.1569 6.2373 43.5V42.5Z" fill="white"/>
<path d="M13.428 38.231C11.734 38.231 10.216 37.956 8.874 37.406C7.532 36.856 6.454 36.042 5.64 34.964C4.848 33.886 4.43 32.588 4.386 31.07H10.392C10.48 31.928 10.777 32.588 11.283 33.05C11.789 33.49 12.449 33.71 13.263 33.71C14.099 33.71 14.759 33.523 15.243 33.149C15.727 32.753 15.969 32.214 15.969 31.532C15.969 30.96 15.771 30.487 15.375 30.113C15.001 29.739 14.528 29.431 13.956 29.189C13.406 28.947 12.614 28.672 11.58 28.364C10.084 27.902 8.863 27.44 7.917 26.978C6.971 26.516 6.157 25.834 5.475 24.932C4.793 24.03 4.452 22.853 4.452 21.401C4.452 19.245 5.233 17.562 6.795 16.352C8.357 15.12 10.392 14.504 12.9 14.504C15.452 14.504 17.509 15.12 19.071 16.352C20.633 17.562 21.469 19.256 21.579 21.434H15.474C15.43 20.686 15.155 20.103 14.649 19.685C14.143 19.245 13.494 19.025 12.702 19.025C12.02 19.025 11.47 19.212 11.052 19.586C10.634 19.938 10.425 20.455 10.425 21.137C10.425 21.885 10.777 22.468 11.481 22.886C12.185 23.304 13.285 23.755 14.781 24.239C16.277 24.745 17.487 25.229 18.411 25.691C19.357 26.153 20.171 26.824 20.853 27.704C21.535 28.584 21.876 29.717 21.876 31.103C21.876 32.423 21.535 33.622 20.853 34.7C20.193 35.778 19.225 36.636 17.949 37.274C16.673 37.912 15.166 38.231 13.428 38.231ZM24.3917 26.384C24.3917 24.096 24.8867 22.061 25.8767 20.279C26.8667 18.475 28.2417 17.078 30.0017 16.088C31.7837 15.076 33.7967 14.57 36.0407 14.57C38.7907 14.57 41.1447 15.296 43.1027 16.748C45.0607 18.2 46.3697 20.18 47.0297 22.688H40.8257C40.3637 21.72 39.7037 20.983 38.8457 20.477C38.0097 19.971 37.0527 19.718 35.9747 19.718C34.2367 19.718 32.8287 20.323 31.7507 21.533C30.6727 22.743 30.1337 24.36 30.1337 26.384C30.1337 28.408 30.6727 30.025 31.7507 31.235C32.8287 32.445 34.2367 33.05 35.9747 33.05C37.0527 33.05 38.0097 32.797 38.8457 32.291C39.7037 31.785 40.3637 31.048 40.8257 30.08H47.0297C46.3697 32.588 45.0607 34.568 43.1027 36.02C41.1447 37.45 38.7907 38.165 36.0407 38.165C33.7967 38.165 31.7837 37.67 30.0017 36.68C28.2417 35.668 26.8667 34.271 25.8767 32.489C24.8867 30.707 24.3917 28.672 24.3917 26.384ZM64.9065 33.908H56.2605L54.8745 38H48.9675L57.3495 14.834H63.8835L72.2655 38H66.2925L64.9065 33.908ZM63.4545 29.552L60.5835 21.071L57.7455 29.552H63.4545ZM95.5405 38H89.8975L80.4595 23.711V38H74.8165V14.834H80.4595L89.8975 29.189V14.834H95.5405V38Z" fill="white"/>
<defs>
<linearGradient id="paint0_linear" x1="262.11" y1="89" x2="207.917" y2="-70.5989" gradientUnits="userSpaceOnUse">
<stop stop-color="#96C21C"/>
<stop offset="1" stop-color="#80E0DA"/>
</linearGradient>
</defs>
</svg>
